<?xml version="1.0" standalone="no"?>
<!DOCTYPE svg PUBLIC "-//W3C//DTD SVG 20010904//EN"
 "http://www.w3.org/TR/2001/REC-SVG-20010904/DTD/svg10.dtd">
<svg version="1.0" xmlns="http://www.w3.org/2000/svg"
 width="372.000000pt" height="372.000000pt" viewBox="0 0 372.000000 372.000000"
 preserveAspectRatio="xMidYMid meet">
<metadata>
Created by potrace 1.14, written by Peter Selinger 2001-2017
</metadata>
<g transform="translate(0.000000,372.000000) scale(0.100000,-0.100000)"
fill="#000000" stroke="none">
<path d="M1488 3403 c-10 -2 -18 -10 -18 -16 0 -9 -2 -9 -8 -1 -5 8 -104 -6
-342 -47 -184 -32 -402 -70 -485 -85 -82 -14 -176 -34 -209 -44 -194 -64 -336
-257 -336 -459 0 -40 54 -374 136 -841 265 -1519 258 -1480 292 -1551 84 -173
255 -281 447 -280 54 0 200 21 445 65 201 36 696 124 1100 196 404 71 760 138
791 148 187 63 328 258 329 457 1 57 -182 1105 -191 1099 -3 -2 -4 8 -1 21 3
20 1 24 -11 19 -12 -4 -14 0 -10 18 l5 23 -16 -23 c-10 -12 -14 -27 -10 -34 4
-7 3 -8 -4 -4 -7 4 -12 18 -12 32 0 13 -4 24 -8 24 -5 0 -17 7 -28 16 -17 14
-17 15 -1 10 15 -5 16 -2 7 14 -13 24 -14 24 -36 3 -16 -16 -17 -16 -12 -2 7
18 -33 64 -46 52 -10 -11 -37 -12 -30 -2 3 5 9 7 13 5 4 -3 8 1 8 9 0 18 -9
19 -24 4 -8 -8 -13 -7 -18 2 -5 8 -4 10 3 5 7 -4 10 -2 6 7 -2 7 -11 14 -19
14 -8 0 -12 -4 -10 -8 6 -9 -16 -6 -33 4 -16 11 -4 30 14 23 8 -3 14 -1 14 4
0 6 -15 8 -32 6 -44 -5 -57 2 -51 25 4 14 0 19 -16 19 -11 0 -21 5 -21 11 0 5
-4 8 -9 4 -5 -3 -12 3 -16 14 -6 20 -36 38 -32 19 1 -6 -4 -13 -11 -15 -8 -3
-10 1 -5 12 5 15 3 16 -15 6 -18 -10 -22 -9 -22 4 0 8 -6 15 -14 15 -8 0 -13
8 -12 17 2 10 -3 23 -10 30 -14 15 -28 17 -20 4 7 -10 -19 -23 -28 -14 -10 10
-7 25 4 18 6 -3 10 0 10 8 0 10 -7 13 -19 10 -10 -3 -22 1 -26 8 -5 8 -4 10 3
5 7 -4 12 -1 12 8 0 20 -27 10 -33 -12 -4 -15 -5 -15 -6 1 0 9 -5 17 -9 17
-16 0 -57 42 -54 55 1 8 -7 20 -20 29 -17 12 -25 13 -37 3 -8 -7 -12 -7 -10
-2 8 13 -28 47 -36 35 -8 -13 -25 -13 -25 1 0 5 5 7 10 4 6 -3 10 -2 10 4 0 5
-13 15 -29 22 -16 7 -28 16 -26 20 3 3 -7 5 -20 3 -14 -1 -27 2 -31 7 -3 5 -9
7 -14 4 -5 -3 -11 -1 -15 5 -4 6 -11 7 -17 4 -7 -4 -8 -2 -4 5 4 6 12 9 17 6
16 -10 10 4 -10 24 -11 11 -23 16 -27 13 -4 -4 -4 1 -1 10 4 12 2 15 -8 11 -8
-3 -13 -9 -10 -13 3 -5 1 -11 -4 -14 -5 -4 -7 7 -4 25 4 28 3 30 -19 23 -20
-6 -21 -5 -9 10 12 14 12 16 -3 10 -9 -3 -16 -10 -16 -15 0 -4 -13 0 -29 9
-23 13 -27 20 -19 30 9 10 8 12 -3 10 -8 -2 -13 3 -11 10 1 7 -17 17 -43 24
-24 7 -41 15 -37 18 5 3 0 13 -10 23 -10 9 -18 13 -18 7 0 -5 -9 -10 -21 -10
-11 0 -18 4 -15 9 3 5 -1 12 -10 15 -14 5 -14 9 -3 23 12 14 10 14 -13 -1 -28
-18 -32 -16 -28 18 1 11 -3 17 -12 14 -7 -3 -13 -10 -13 -15 0 -6 -3 -15 -7
-18 -4 -4 -5 5 -2 20 4 23 2 26 -9 17 -10 -9 -17 -5 -31 18 -9 17 -15 33 -13
38 3 4 -6 8 -19 8 -13 1 -31 9 -40 18 -9 10 -23 15 -30 12 -8 -3 -11 0 -8 8 3
7 -3 19 -12 27 -12 9 -15 10 -10 2 4 -8 2 -13 -4 -13 -6 0 -8 -5 -4 -12 6 -10
4 -10 -8 0 -9 7 -14 22 -11 35 3 13 1 17 -4 10 -4 -6 -20 -9 -36 -6 -20 4 -25
8 -16 14 8 4 20 3 29 -4 8 -6 6 -2 -4 11 -11 12 -28 22 -38 22 -11 0 -16 4
-12 11 5 8 1 8 -14 0 -13 -7 -23 -7 -27 -1 -3 5 -13 7 -23 4 -14 -5 -14 -4 -2
4 10 8 18 8 27 0 10 -8 13 -6 13 6 0 9 -6 17 -12 17 -7 1 -20 2 -28 3 -8 0
-19 -3 -23 -9 -5 -6 -6 3 -4 20 5 27 4 28 -9 10 -14 -18 -14 -18 -14 3 0 15
-6 22 -20 22 -11 0 -19 3 -19 8 3 19 -2 25 -11 12 -9 -13 -10 -13 -10 0 0 13
-1 13 -10 0 -8 -13 -10 -12 -11 5 -1 11 -1 24 0 29 1 5 -5 4 -13 -4 -9 -7 -16
-20 -17 -29 0 -11 -2 -12 -6 -3 -3 7 0 19 7 27 14 16 4 39 -12 29 -8 -5 -9 -1
-4 12 6 15 5 17 -5 7 -19 -19 -29 -16 -29 10 0 18 -2 19 -10 7 -7 -11 -10 -12
-10 -2 0 9 -7 11 -22 7 -23 -7 -23 -7 -3 9 21 16 21 16 -7 9z m26 -54 c-3 -5
-10 -7 -15 -3 -5 3 -7 10 -3 15 3 5 10 7 15 3 5 -3 7 -10 3 -15z m516 -314 c0
-2 -9 -3 -19 -2 -11 0 -18 5 -15 9 4 6 34 0 34 -7z m140 -119 c0 -8 6 -17 13
-19 9 -4 9 -6 0 -6 -7 -1 -17 8 -23 19 -7 14 -7 20 0 20 5 0 10 -6 10 -14z
m-1129 -25 c14 -10 58 -63 99 -117 41 -55 162 -213 269 -353 177 -232 195
-259 198 -300 5 -52 -21 -104 -59 -121 -13 -6 -202 -41 -421 -80 -370 -64
-401 -68 -433 -55 -40 16 -74 68 -74 112 0 27 212 731 256 850 9 24 27 52 41
63 33 26 92 26 124 1z m1439 -171 c0 -5 -2 -10 -4 -10 -3 0 -8 5 -11 10 -3 6
-1 10 4 10 6 0 11 -4 11 -10z m130 -86 c0 -8 -4 -12 -10 -9 -5 3 -10 10 -10
16 0 5 5 9 10 9 6 0 10 -7 10 -16z m126 -67 c4 -4 -2 -7 -14 -7 -12 0 -22 4
-22 9 0 10 26 9 36 -2z m-71 -7 c3 -5 1 -10 -4 -10 -6 0 -11 5 -11 10 0 6 2
10 4 10 3 0 8 -4 11 -10z m370 -240 c3 -5 1 -10 -4 -10 -6 0 -11 5 -11 10 0 6
2 10 4 10 3 0 8 -4 11 -10z m245 -131 c0 -6 -4 -7 -10 -4 -5 3 -10 11 -10 16
0 6 5 7 10 4 6 -3 10 -11 10 -16z m-457 -430 c160 -54 281 -176 328 -331 18
-58 21 -88 17 -173 -4 -92 -8 -110 -41 -179 -156 -329 -577 -397 -822 -134
-148 159 -177 386 -73 580 58 109 200 220 315 247 74 17 209 13 276 -10z
m-1161 -201 c58 -45 61 -54 167 -679 16 -89 18 -125 10 -153 -13 -47 -61 -102
-102 -115 -54 -17 -679 -124 -724 -123 -52 0 -104 31 -132 75 -27 45 -147 726
-137 780 9 45 65 112 104 122 15 4 169 34 342 66 358 65 417 69 472 27z"/>
<path d="M2073 3015 c0 -8 4 -12 9 -9 5 3 6 10 3 15 -9 13 -12 11 -12 -6z"/>
<path d="M2201 2934 c0 -11 3 -14 6 -6 3 7 2 16 -1 19 -3 4 -6 -2 -5 -13z"/>
<path d="M2355 2820 c-3 -5 -2 -10 4 -10 5 0 13 5 16 10 3 6 2 10 -4 10 -5 0
-13 -4 -16 -10z"/>
<path d="M2524 2704 c-18 -14 -18 -15 4 -4 12 6 22 13 22 15 0 8 -5 6 -26 -11z"/>
<path d="M2787 2535 c-4 -8 -3 -16 1 -19 4 -3 9 4 9 15 2 23 -3 25 -10 4z"/>
<path d="M2944 2425 c3 -23 22 -39 30 -26 4 6 0 11 -9 11 -9 0 -14 4 -10 9 3
5 1 12 -4 15 -5 4 -8 -1 -7 -9z"/>
<path d="M3077 2349 c7 -7 15 -10 18 -7 3 3 -2 9 -12 12 -14 6 -15 5 -6 -5z"/>
<path d="M3120 2320 c-13 -8 -12 -10 3 -10 9 0 17 5 17 10 0 12 -1 12 -20 0z"/>
</g>
</svg>
